<mxfile host="app.diagrams.net" modified="2021-01-08T22:38:37.301Z" agent="5.0 (Macintosh; Intel Mac OS X 10_15_6) AppleWebKit/537.36 (KHTML, like Gecko) Chrome/87.0.4280.88 Safari/537.36" etag="LNPpu_eyWX80W80YMDch" version="14.1.7" type="github">
  <diagram id="kLP2BdOTn0ogQ7rsq4Yj" name="Page-1">
    <mxGraphModel dx="670" dy="372" grid="1" gridSize="10" guides="1" tooltips="1" connect="1" arrows="1" fold="1" page="1" pageScale="1" pageWidth="827" pageHeight="1169" background="#114B5F" math="0" shadow="0">
      <root>
        <mxCell id="0" />
        <mxCell id="1" parent="0" />
        <mxCell id="2Gsh4tW_Gu2w8K7v1lou-142" value="" style="shape=table;html=1;whiteSpace=wrap;startSize=0;container=1;collapsible=0;childLayout=tableLayout;comic=1;fillColor=#F45B69;strokeColor=#028090;fontColor=#E4FDE1;fontFamily=Architects Daughter;fontSource=https%3A%2F%2Ffonts.googleapis.com%2Fcss%3Ffamily%3DArchitects%2BDaughter;" parent="1" vertex="1">
          <mxGeometry x="100" y="100" width="150" height="40" as="geometry" />
        </mxCell>
        <mxCell id="2Gsh4tW_Gu2w8K7v1lou-143" value="" style="shape=partialRectangle;html=1;whiteSpace=wrap;collapsible=0;dropTarget=0;pointerEvents=0;fillColor=none;top=0;left=0;bottom=0;right=0;points=[[0,0.5],[1,0.5]];portConstraint=eastwest;strokeColor=#028090;fontColor=#E4FDE1;" parent="2Gsh4tW_Gu2w8K7v1lou-142" vertex="1">
          <mxGeometry width="150" height="40" as="geometry" />
        </mxCell>
        <mxCell id="2Gsh4tW_Gu2w8K7v1lou-144" value="__got section header" style="shape=partialRectangle;html=1;whiteSpace=wrap;connectable=0;overflow=hidden;fillColor=none;top=0;left=0;bottom=0;right=0;strokeColor=#028090;fontColor=#E4FDE1;fontFamily=Architects Daughter;fontSource=https%3A%2F%2Ffonts.googleapis.com%2Fcss%3Ffamily%3DArchitects%2BDaughter;" parent="2Gsh4tW_Gu2w8K7v1lou-143" vertex="1">
          <mxGeometry width="150" height="40" as="geometry" />
        </mxCell>
        <mxCell id="2Gsh4tW_Gu2w8K7v1lou-152" value="section heders" style="text;html=1;align=center;verticalAlign=middle;resizable=0;points=[];autosize=1;fontFamily=Architects Daughter;fontColor=#E4FDE1;" parent="1" vertex="1">
          <mxGeometry x="120" y="70" width="100" height="20" as="geometry" />
        </mxCell>
        <mxCell id="2Gsh4tW_Gu2w8K7v1lou-160" value="" style="shape=table;html=1;whiteSpace=wrap;startSize=0;container=1;collapsible=0;childLayout=tableLayout;comic=1;fillColor=#F45B69;strokeColor=#028090;fontColor=#E4FDE1;fontFamily=Architects Daughter;fontSource=https%3A%2F%2Ffonts.googleapis.com%2Fcss%3Ffamily%3DArchitects%2BDaughter;" parent="1" vertex="1">
          <mxGeometry x="100" y="230" width="150" height="40" as="geometry" />
        </mxCell>
        <mxCell id="2Gsh4tW_Gu2w8K7v1lou-161" value="" style="shape=partialRectangle;html=1;whiteSpace=wrap;collapsible=0;dropTarget=0;pointerEvents=0;fillColor=none;top=0;left=0;bottom=0;right=0;points=[[0,0.5],[1,0.5]];portConstraint=eastwest;strokeColor=#028090;fontColor=#E4FDE1;" parent="2Gsh4tW_Gu2w8K7v1lou-160" vertex="1">
          <mxGeometry width="150" height="40" as="geometry" />
        </mxCell>
        <mxCell id="2Gsh4tW_Gu2w8K7v1lou-162" value="lazy_symbol_ptr section header" style="shape=partialRectangle;html=1;whiteSpace=wrap;connectable=0;overflow=hidden;fillColor=none;top=0;left=0;bottom=0;right=0;strokeColor=#028090;fontColor=#E4FDE1;fontFamily=Architects Daughter;fontSource=https%3A%2F%2Ffonts.googleapis.com%2Fcss%3Ffamily%3DArchitects%2BDaughter;" parent="2Gsh4tW_Gu2w8K7v1lou-161" vertex="1">
          <mxGeometry width="150" height="40" as="geometry" />
        </mxCell>
      </root>
    </mxGraphModel>
  </diagram>
</mxfile>
